<?xml version="1.0" encoding="UTF-8" standalone="no"?>
<!-- Created with Inkscape (http://www.inkscape.org/) -->

<svg
   xmlns:dc="http://purl.org/dc/elements/1.1/"
   xmlns:cc="http://creativecommons.org/ns#"
   xmlns:rdf="http://www.w3.org/1999/02/22-rdf-syntax-ns#"
   xmlns:svg="http://www.w3.org/2000/svg"
   xmlns="http://www.w3.org/2000/svg"
   xmlns:sodipodi="http://sodipodi.sourceforge.net/DTD/sodipodi-0.dtd"
   xmlns:inkscape="http://www.inkscape.org/namespaces/inkscape"
   version="1.1"
   id="svg2"
   xml:space="preserve"
   width="520mm"
   height="520mm"
   viewBox="0 0 1965.3544 1965.3545"
   sodipodi:docname="bou_dark.svg"
   inkscape:version="0.92.5 (2060ec1f9f, 2020-04-08)"><metadata
     id="metadata23"><rdf:RDF><cc:Work
         rdf:about=""><dc:format>image/svg+xml</dc:format><dc:type
           rdf:resource="http://purl.org/dc/dcmitype/StillImage" /><dc:title></dc:title></cc:Work></rdf:RDF></metadata><defs
     id="defs6" /><sodipodi:namedview
     id="namedview4"
     pagecolor="#ffffff"
     bordercolor="#666666"
     borderopacity="1.0"
     inkscape:pageshadow="2"
     inkscape:pageopacity="0.0"
     inkscape:pagecheckerboard="0"
     showgrid="false"
     inkscape:zoom="0.544375"
     inkscape:cx="1059.2316"
     inkscape:cy="880.32423"
     inkscape:window-width="1920"
     inkscape:window-height="1016"
     inkscape:window-x="1400"
     inkscape:window-y="27"
     inkscape:window-maximized="1"
     inkscape:current-layer="g8"
     units="mm"
     showguides="true"
     inkscape:guide-bbox="true"
     fit-margin-top="0"
     fit-margin-left="0"
     fit-margin-right="0"
     fit-margin-bottom="0"
     inkscape:document-units="mm"><sodipodi:guide
       position="188.99479,13.638799"
       orientation="0,-1"
       id="guide5077" /><sodipodi:guide
       position="27.333964,0.097875552"
       orientation="0,-1"
       id="guide5079" /><sodipodi:guide
       position="-0.22056846,13.875145"
       orientation="1,0"
       id="guide5081" /><sodipodi:guide
       position="371.81651,48.521682"
       orientation="1,0"
       id="guide5083" /><sodipodi:guide
       position="288.0411,84.450964"
       orientation="0,-1"
       id="guide5792" /><sodipodi:guide
       position="167.97429,136.17224"
       orientation="1,0"
       id="guide5794" /></sodipodi:namedview><g
     id="g8"
     inkscape:groupmode="layer"
     inkscape:label="carton_box_BOOU"
     transform="matrix(1.3333333,0,0,1.3333333,-76.225163,1651.1141)"><g
       id="g10"
       inkscape:export-filename="/home/practicas/Escritorio/DISEÑOS/MATERIAL DISEÑOS/BOOU/cabeza_ping_negra.png"
       inkscape:export-xdpi="202.08389"
       inkscape:export-ydpi="202.08389"
       transform="matrix(10.248762,0,0,9.8659851,-709.92947,-1942.4504)"><path
         d="m 169.996,102.656 c -18.973,0.254 -42.086,9.11 -53.797,8.742 -10.793,-0.332 -32.105,-2.742 -40.34,4.438 -3.527,3.066 17.93,2.074 41.789,15.363 25.164,14.012 26.719,26.875 26.719,26.875 0,0 -13.035,10.738 -17.058,20.074 6.273,0 7.589,0.071 7.589,0.071 0.899,-1.379 2.266,-2.86 3.497,-4.371 1.23,-1.512 2.632,-3.047 4.21,-4.528 1.583,-1.476 3.344,-2.902 5.29,-4.183 0.976,-0.641 1.996,-1.246 3.062,-1.809 1.07,-0.562 2.184,-1.078 3.352,-1.539 1.164,-0.461 2.379,-0.867 3.644,-1.207 1.262,-0.34 2.578,-0.617 3.945,-0.816 1.368,-0.2 2.711,-0.258 4.032,-0.192 1.328,0.067 2.629,0.258 3.902,0.555 1.277,0.301 2.527,0.707 3.75,1.203 1.219,0.496 2.414,1.082 3.578,1.742 1.16,0.66 2.293,1.399 3.391,2.188 1.097,0.793 2.16,1.64 3.183,2.531 2.055,1.777 3.961,3.711 5.696,5.672 1.734,1.961 1.625,2.808 2.996,4.683 h 25.472 c 0,0 -2.582,-57.652 -30.878,-72.218 -4.829,-2.489 -10.696,-3.356 -17.024,-3.274 z m -5.902,16.094 c 2.418,0 4.84,0.984 4.543,3.148 -0.274,2.004 -2.285,2.571 -4.375,2.625 -2.426,0.067 -4.328,-0.859 -4.496,-2.886 -0.161,-1.953 1.308,-2.887 4.328,-2.887 z m -59.797,0.172 c 17.898,-0.067 26.535,3 31.047,5.637 5.965,3.488 3.64,7.398 -2.36,6.277 -9.332,-1.746 -8.507,-5.328 -28.687,-11.914 z"
         style="fill:#000000;fill-opacity:1;fill-rule:evenodd;stroke:none"
         id="path80"
         inkscape:connector-curvature="0" /><path
         d="m 169.996,102.656 c -18.973,0.254 -42.086,9.11 -53.797,8.742 -10.793,-0.332 -32.105,-2.742 -40.34,4.438 -3.527,3.066 17.93,2.074 41.789,15.363 25.164,14.012 26.719,26.875 26.719,26.875 0,0 -13.035,10.738 -17.058,20.074 6.273,0 7.589,0.071 7.589,0.071 0.899,-1.379 2.266,-2.86 3.497,-4.371 1.23,-1.512 2.632,-3.047 4.21,-4.528 1.583,-1.476 3.344,-2.902 5.29,-4.183 0.976,-0.641 1.996,-1.246 3.062,-1.809 1.07,-0.562 2.184,-1.078 3.352,-1.539 1.164,-0.461 2.379,-0.867 3.644,-1.207 1.262,-0.34 2.578,-0.617 3.945,-0.816 1.368,-0.2 2.711,-0.258 4.032,-0.192 1.328,0.067 2.629,0.258 3.902,0.555 1.277,0.301 2.527,0.707 3.75,1.203 1.219,0.496 2.414,1.082 3.578,1.742 1.16,0.66 2.293,1.399 3.391,2.188 1.097,0.793 2.16,1.64 3.183,2.531 2.055,1.777 3.961,3.711 5.696,5.672 1.734,1.961 1.625,2.808 2.996,4.683 h 25.472 c 0,0 -2.582,-57.652 -30.878,-72.218 -4.829,-2.489 -10.696,-3.356 -17.024,-3.274 z m -5.902,16.094 c 2.418,0 4.84,0.984 4.543,3.148 -0.274,2.004 -2.285,2.571 -4.375,2.625 -2.426,0.067 -4.328,-0.859 -4.496,-2.886 -0.161,-1.953 1.308,-2.887 4.328,-2.887 z m -59.797,0.172 c 17.898,-0.067 26.535,3 31.047,5.637 5.965,3.488 3.64,7.398 -2.36,6.277 -9.332,-1.746 -8.507,-5.328 -28.687,-11.914 z"
         style="fill:#000000;fill-opacity:1;fill-rule:evenodd;stroke:none"
         id="path82"
         inkscape:connector-curvature="0" /></g><path
       d="M 75.108211,41.15243 V 5.2343296 h 74.582659 c 11.4796,0 20.94174,-2.6484401 28.40756,-7.9281605 7.46883,-5.2826503 11.20777,-12.1480101 11.20777,-20.6018401 0,-4.23127 -1.00268,-8.09754 -3.00807,-11.62235 -2.00537,-3.52459 -4.72956,-6.51488 -8.1997,-8.98814 -3.45505,-2.63698 -7.64401,-4.66646 -12.56383,-6.07099 -4.91984,-1.41345 -10.19301,-2.10848 -15.84373,-2.10848 h -16.94004 c -8.74333,0 -16.8464,-1.32276 -24.31524,-3.97137 -7.46884,-2.81504 -13.931954,-6.68436 -19.395408,-11.62234 -5.460448,-5.09861 -9.743018,-11.008982 -12.835657,-17.693338 -3.101697,-6.86536 -4.648014,-14.440271 -4.648014,-22.721851 0,-8.09759 1.546317,-15.58208 4.648014,-22.44739 3.27989,-6.86818 7.834275,-12.85745 13.663173,-17.9678 5.82587,-5.0986 12.835642,-9.06703 21.032332,-11.88507 8.18764,-2.99023 17.21487,-4.48246 27.04244,-4.48246 h 70.75916 v 35.92098 h -72.67091 c -7.83428,0 -14.0286,2.10843 -18.58299,6.33975 -4.53929,4.05026 -6.81648,8.97949 -6.81648,14.78482 0,6.34258 2.27719,11.622293 6.81648,15.856549 4.74465,4.219629 10.93598,6.339639 18.58299,6.339639 h 21.03537 c 9.47118,0 18.21453,1.585752 26.22397,4.74535 8.02154,3.001974 14.93768,7.312131 20.76356,12.947981 5.82889,5.63596 10.38329,12.33195 13.66316,20.07612 3.27987,7.74439 4.91983,16.19817 4.91983,25.35883 0,9.33003 -1.73658,17.87439 -5.19163,25.6186705 -3.4581,7.7559705 -8.47154,14.4403305 -15.03131,20.0762905 -6.36951,5.6358 -14.0135,10.03942 -22.9441,13.21076 -8.92152,3.16841 -18.85481,4.75394 -29.7787,4.75394 z"
       style="fill:#000000;fill-opacity:1;fill-rule:nonzero;stroke:none;stroke-width:2.96973538"
       id="path123"
       inkscape:connector-curvature="0" /><path
       d="m 241.24073,41.15243 z m 0,0 v -206.02968 h 36.87906 V 5.2343296 h 57.91148 V 41.15243 Z"
       style="fill:#000000;fill-opacity:1;fill-rule:nonzero;stroke:none;stroke-width:2.96973538"
       id="path125"
       inkscape:connector-curvature="0" /><path
       d="m 350.93266,41.15243 z m 0,0 V -164.87725 H 388.0956 V 41.15243 Z"
       style="fill:#000000;fill-opacity:1;fill-rule:nonzero;stroke:none;stroke-width:2.96973538"
       id="path127"
       inkscape:connector-curvature="0" /><path
       d="m 400.55381,41.15243 z m 133.0377,-196.79018 c 2.549,-3.87812 5.74737,-6.60551 9.5678,-8.19121 3.82359,-1.75496 7.74069,-2.63399 11.75148,-2.63399 4.72947,0 8.553,1.66454 11.46755,5.01982 2.91432,3.15971 4.37622,7.4815 4.37622,12.93341 v 125.476829 l 91.24169,-132.604859 c 2.54911,-3.87812 5.6507,-6.60551 9.28404,-8.19121 3.83554,-1.75496 7.83431,-2.63399 12.02328,-2.63399 4.74154,0 8.56502,1.66454 11.47946,5.01982 2.91155,3.15971 4.37616,7.4815 4.37616,12.93341 V 41.15243 H 661.99625 V -98.055002 L 578.94213,28.7418 c -3.08962,4.75694 -6.46616,8.01 -10.09939,9.7767 -3.64525,1.758 -7.38429,2.63393 -11.20776,2.63393 -3.27987,0 -6.36955,-0.52251 -9.28404,-1.58553 -2.91438,-1.2294 -5.46039,-2.90846 -7.65603,-5.01694 -2.18362,-2.1112 -3.91721,-4.57587 -5.19158,-7.39375 -1.27458,-2.81515 -1.91182,-5.98644 -1.91182,-9.51108 V -98.055002 L 442.3527,41.15243 h -44.26639 z"
       style="fill:#000000;fill-opacity:1;fill-rule:nonzero;stroke:none;stroke-width:2.96973538"
       id="path129"
       inkscape:connector-curvature="0" /><path
       d="m 722.84935,40.8927 z m 37.14788,-170.37453 V 4.9714996 h 32.51491 c 12.74208,0 23.12241,-2.0323601 31.14382,-6.0796304 8.18774,-4.0503203 12.29509,-10.3929502 12.29509,-19.0162502 0,-8.63495 -2.73626,-15.05631 -8.1997,-19.28768 -5.46349,-4.22257 -12.29204,-6.34258 -20.49174,-6.34258 h -25.68332 v -35.658306 h 25.68332 c 8.1997,0 14.48763,-1.938951 18.85184,-5.808209 4.55428,-3.877903 6.83154,-10.036647 6.83154,-18.490534 0,-8.45089 -3.09267,-14.5308 -9.28703,-18.22764 -6.01612,-3.69402 -16.39635,-5.5425 -31.14382,-5.5425 z m 81.41427,62.076949 c 5.64161,2.46179 10.38326,5.5425 14.2037,9.23951 4.01383,3.52465 7.19713,7.39091 9.5679,11.62223 2.36175,4.21963 4.00171,8.62326 4.90771,13.21087 1.09945,4.57294 1.64007,8.97662 1.64007,13.20789 0,8.45399 -1.72152,16.37063 -5.1887,23.7730705 -3.27987,7.3911405 -8.4715,13.9030805 -15.5749,19.5390405 -6.9131,5.46355 -15.7472,9.77664 -26.4959,12.94798 -10.5584,3.17129 -23.13432,4.75699 -37.70351,4.75699 h -63.91852 v -206.04447 h 71.84647 c 23.85306,0 42.06754,4.40362 54.6315,13.20804 12.57896,8.80708 18.85482,22.18738 18.85482,40.1523 0,4.05021 -0.44965,8.28158 -1.37114,12.685204 -0.90606,4.219575 -2.35876,8.360474 -4.36415,12.410736 -2.0054,3.878012 -4.72959,7.484491 -8.1997,10.825039 -3.45511,3.35528 -7.7377,6.17032 -12.83565,8.46557 z"
       style="fill:#000000;fill-opacity:1;fill-rule:nonzero;stroke:none;stroke-width:2.96973538"
       id="path131"
       inkscape:connector-curvature="0" /><path
       d="m 883.14101,39.97865 z m 98.58977,0 c -14.37894,0 -27.6767,-2.63409 -39.88718,-7.8932 C 929.81134,26.64517 919.44015,19.18417 910.733,9.7169099 902.04107,0.2496893 895.26684,-10.806041 890.41949,-23.432851 c -4.85029,-12.80787 -7.27848,-26.57654 -7.27848,-41.31461 0,-14.726371 2.34658,-28.232318 7.03081,-40.517399 4.84736,-12.2735 11.53704,-22.88241 20.06585,-31.83869 8.69508,-8.94155 19.06628,-15.86525 31.11065,-20.7828 12.21054,-4.90297 25.67125,-7.36759 40.38246,-7.36759 h 5.76846 c 14.88946,0 28.35026,2.54346 40.39466,7.63043 12.2104,4.91749 22.5816,11.84124 31.1105,20.7829 8.695,8.95606 15.3846,19.56508 20.0689,31.83858 4.6844,12.285139 7.031,25.697566 7.031,40.254569 0,14.73807 -2.4313,28.50674 -7.2786,41.31461 -4.8503,12.62681 -11.7031,23.6825403 -20.5763,33.1497609 -8.6952,9.4672601 -19.0633,16.9282601 -31.1107,22.3685401 -12.0322,5.25911 -25.2455,7.8932 -39.63946,7.8932 z m 0,-169.44879 c -9.35341,0 -17.97895,1.66448 -25.83442,4.99633 -7.85835,3.34077 -14.71104,7.98379 -20.57629,13.94973 -5.6869,5.96589 -10.19296,13.073583 -13.54226,21.308513 -3.17417,8.246566 -4.76596,17.372046 -4.76596,27.364876 0,9.6512 1.59179,18.50217 4.76596,26.57942 3.17112,8.06268 7.60764,15.07974 13.29471,21.04562 5.6869,5.7937497 12.45809,10.34619 20.32862,13.6869502 8.02152,3.1478603 16.79805,4.7335004 26.32964,4.7335004 h 5.76846 c 9.70982,0 18.48936,-1.6644301 26.34476,-5.0080204 8.0337,-3.3289702 14.8894,-7.8932005 20.5764,-13.6751502 5.6839,-5.966 10.0389,-12.98311 13.047,-21.04563 3.1742,-8.07736 4.7658,-16.83779 4.7658,-26.31669 0,-9.82058 -1.5916,-18.855423 -4.7658,-27.102152 -3.1863,-8.237757 -7.6922,-15.342517 -13.5545,-21.308407 -5.6869,-6.13824 -12.5425,-10.87179 -20.5641,-14.21256 -7.8675,-3.33185 -16.48098,-4.99633 -25.84956,-4.99633 z"
       style="fill:#000000;fill-opacity:1;fill-rule:nonzero;stroke:none;stroke-width:2.96973538"
       id="path133"
       inkscape:connector-curvature="0" /><path
       d="m 1102.8208,41.15243 z m 98.5929,0 c -14.382,0 -27.6768,-2.63393 -39.8872,-7.92528 -12.0474,-5.45485 -22.4156,-12.93629 -31.1106,-22.45032 -8.695,-9.5138106 -15.4662,-20.6016814 -20.3288,-33.284061 -4.8472,-12.85751 -7.2663,-26.68164 -7.2663,-41.46641 0,-14.793521 2.3345,-28.357863 7.0188,-40.686719 4.8504,-12.32026 11.54,-22.97299 20.0689,-31.9613 8.7072,-8.97949 19.0753,-15.93832 31.1106,-20.86462 12.2106,-4.92923 25.6713,-7.39097 40.3946,-7.39097 h 5.7685 c 14.8863,0 28.3471,2.54351 40.3945,7.65375 12.1983,4.92641 22.5666,11.88512 31.0986,20.86174 8.704,8.98831 15.3936,19.64397 20.0778,31.96418 4.6843,12.328909 7.0189,25.802668 7.0189,40.423939 0,14.78477 -2.4282,28.6089 -7.2785,41.46641 -4.8475,12.6823796 -11.7032,23.7702504 -20.5613,33.284061 -8.707,9.51403 -19.0784,16.99547 -31.1105,22.45032 -12.0474,5.29135 -25.2607,7.92528 -39.6395,7.92528 z m 0,-170.1087 c -9.3685,0 -17.982,1.67617 -25.8374,5.01694 -7.8706,3.34348 -14.7233,8.00705 -20.5764,13.99638 -5.6839,5.98926 -10.205,13.117402 -13.5424,21.398929 -3.1862,8.28169 -4.7657,17.43055 -4.7657,27.47019 0,9.68323 1.5795,18.58096 4.7657,26.6786 3.1742,8.10052 7.6109,15.14987 13.2947,21.13909 5.687,5.8053198 12.4583,10.3901101 20.3167,13.7336003 8.0336,3.1712302 16.8102,4.7568703 26.3448,4.7568703 h 5.7685 c 9.6977,0 18.4742,-1.6790001 26.3418,-5.0197103 8.0244,-3.3551702 14.8772,-7.9282705 20.5641,-13.7335403 5.6869,-5.98927 10.039,-13.03857 13.047,-21.13915 3.1864,-8.09764 4.7659,-16.90478 4.7659,-26.41576 0,-9.85564 -1.5795,-18.925667 -4.7659,-27.207357 -3.174,-8.281636 -7.6922,-15.409612 -13.5423,-21.398992 -5.6869,-6.15858 -12.5397,-10.91567 -20.5762,-14.25915 -7.8555,-3.34077 -16.469,-5.01694 -25.8344,-5.01694 z"
       style="fill:#000000;fill-opacity:1;fill-rule:nonzero;stroke:none;stroke-width:2.96973538"
       id="path135"
       inkscape:connector-curvature="0" /><path
       d="m 1322.111,40.55967 z m 86.8777,-83.201411 -49.7268,73.962021 c -2.549,4.05031 -5.7322,6.86824 -9.5558,8.45394 -3.6453,1.4017 -7.5623,2.10837 -11.7513,2.10837 -4.7296,0 -8.5622,-1.58559 -11.4766,-4.75405 -2.9145,-3.17134 -4.3672,-7.48444 -4.3672,-12.93635 v -189.66226 h 37.1509 v 139.207599 l 91.254,-139.207599 h 44.2512 l -63.6467,90.866969 86.8777,115.162771 h -50.2704 z"
       style="fill:#000000;fill-opacity:1;fill-rule:nonzero;stroke:none;stroke-width:2.96973538"
       id="path137"
       inkscape:connector-curvature="0" /></g></svg>