<?xml version="1.0" encoding="UTF-8" standalone="no"?>
<!-- Created with Inkscape (http://www.inkscape.org/) -->

<svg
   version="1.1"
   id="svg2"
   xml:space="preserve"
   width="32"
   height="32"
   viewBox="0 0 32.000001 32.000002"
   sodipodi:docname="slimbook-status-attention-light.svg"
   inkscape:version="1.3 (0e150ed6c4, 2023-07-21)"
   xmlns:inkscape="http://www.inkscape.org/namespaces/inkscape"
   xmlns:sodipodi="http://sodipodi.sourceforge.net/DTD/sodipodi-0.dtd"
   xmlns="http://www.w3.org/2000/svg"
   xmlns:svg="http://www.w3.org/2000/svg"
   xmlns:rdf="http://www.w3.org/1999/02/22-rdf-syntax-ns#"
   xmlns:cc="http://creativecommons.org/ns#"
   xmlns:dc="http://purl.org/dc/elements/1.1/"><metadata
     id="metadata23"><rdf:RDF><cc:Work
         rdf:about=""><dc:format>image/svg+xml</dc:format><dc:type
           rdf:resource="http://purl.org/dc/dcmitype/StillImage" /></cc:Work></rdf:RDF></metadata><defs
     id="defs6" /><sodipodi:namedview
     id="namedview4"
     pagecolor="#ffffff"
     bordercolor="#666666"
     borderopacity="1.0"
     inkscape:pageshadow="2"
     inkscape:pageopacity="0.0"
     inkscape:pagecheckerboard="0"
     showgrid="false"
     inkscape:zoom="12.3178"
     inkscape:cx="0.97419994"
     inkscape:cy="17.007907"
     inkscape:window-width="1920"
     inkscape:window-height="1016"
     inkscape:window-x="0"
     inkscape:window-y="0"
     inkscape:window-maximized="1"
     inkscape:current-layer="g8"
     units="mm"
     showguides="true"
     inkscape:guide-bbox="true"
     fit-margin-top="0"
     fit-margin-left="0"
     fit-margin-right="0"
     fit-margin-bottom="0"
     inkscape:document-units="px"
     inkscape:showpageshadow="2"
     inkscape:deskcolor="#d1d1d1" /><g
     id="g8"
     inkscape:groupmode="layer"
     inkscape:label="carton_box_BOOU"
     transform="matrix(1.3333333,0,0,1.3333333,-76.225163,1651.1141)"><g
       id="g10"
       inkscape:export-filename="/home/practicas/Escritorio/DISEÑOS/MATERIAL DISEÑOS/BOOU/cabeza_ping_negra.png"
       inkscape:export-xdpi="202.08389"
       inkscape:export-ydpi="202.08389"
       transform="matrix(0.14878999,0,0,0.1432329,47.343226,-1246.4505)"
       style="fill:#131313;fill-opacity:1"><path
         d="m 169.996,102.656 c -18.973,0.254 -42.086,9.11 -53.797,8.742 -10.793,-0.332 -32.105,-2.742 -40.34,4.438 -3.527,3.066 17.93,2.074 41.789,15.363 25.164,14.012 26.719,26.875 26.719,26.875 0,0 -13.035,10.738 -17.058,20.074 6.273,0 7.589,0.071 7.589,0.071 0.899,-1.379 2.266,-2.86 3.497,-4.371 1.23,-1.512 2.632,-3.047 4.21,-4.528 1.583,-1.476 3.344,-2.902 5.29,-4.183 0.976,-0.641 1.996,-1.246 3.062,-1.809 1.07,-0.562 2.184,-1.078 3.352,-1.539 1.164,-0.461 2.379,-0.867 3.644,-1.207 1.262,-0.34 2.578,-0.617 3.945,-0.816 1.368,-0.2 2.711,-0.258 4.032,-0.192 1.328,0.067 2.629,0.258 3.902,0.555 1.277,0.301 2.527,0.707 3.75,1.203 1.219,0.496 2.414,1.082 3.578,1.742 1.16,0.66 2.293,1.399 3.391,2.188 1.097,0.793 2.16,1.64 3.183,2.531 2.055,1.777 3.961,3.711 5.696,5.672 1.734,1.961 1.625,2.808 2.996,4.683 h 25.472 c 0,0 -2.582,-57.652 -30.878,-72.218 -4.829,-2.489 -10.696,-3.356 -17.024,-3.274 z m -5.902,16.094 c 2.418,0 4.84,0.984 4.543,3.148 -0.274,2.004 -2.285,2.571 -4.375,2.625 -2.426,0.067 -4.328,-0.859 -4.496,-2.886 -0.161,-1.953 1.308,-2.887 4.328,-2.887 z m -59.797,0.172 c 17.898,-0.067 26.535,3 31.047,5.637 5.965,3.488 3.64,7.398 -2.36,6.277 -9.332,-1.746 -8.507,-5.328 -28.687,-11.914 z"
         style="fill:#131313;fill-opacity:1;fill-rule:evenodd;stroke:none"
         id="path80"
         inkscape:connector-curvature="0" /><path
         d="m 169.996,102.656 c -18.973,0.254 -42.086,9.11 -53.797,8.742 -10.793,-0.332 -32.105,-2.742 -40.34,4.438 -3.527,3.066 17.93,2.074 41.789,15.363 25.164,14.012 26.719,26.875 26.719,26.875 0,0 -13.035,10.738 -17.058,20.074 6.273,0 7.589,0.071 7.589,0.071 0.899,-1.379 2.266,-2.86 3.497,-4.371 1.23,-1.512 2.632,-3.047 4.21,-4.528 1.583,-1.476 3.344,-2.902 5.29,-4.183 0.976,-0.641 1.996,-1.246 3.062,-1.809 1.07,-0.562 2.184,-1.078 3.352,-1.539 1.164,-0.461 2.379,-0.867 3.644,-1.207 1.262,-0.34 2.578,-0.617 3.945,-0.816 1.368,-0.2 2.711,-0.258 4.032,-0.192 1.328,0.067 2.629,0.258 3.902,0.555 1.277,0.301 2.527,0.707 3.75,1.203 1.219,0.496 2.414,1.082 3.578,1.742 1.16,0.66 2.293,1.399 3.391,2.188 1.097,0.793 2.16,1.64 3.183,2.531 2.055,1.777 3.961,3.711 5.696,5.672 1.734,1.961 1.625,2.808 2.996,4.683 h 25.472 c 0,0 -2.582,-57.652 -30.878,-72.218 -4.829,-2.489 -10.696,-3.356 -17.024,-3.274 z m -5.902,16.094 c 2.418,0 4.84,0.984 4.543,3.148 -0.274,2.004 -2.285,2.571 -4.375,2.625 -2.426,0.067 -4.328,-0.859 -4.496,-2.886 -0.161,-1.953 1.308,-2.887 4.328,-2.887 z m -59.797,0.172 c 17.898,-0.067 26.535,3 31.047,5.637 5.965,3.488 3.64,7.398 -2.36,6.277 -9.332,-1.746 -8.507,-5.328 -28.687,-11.914 z"
         style="fill:#131313;fill-opacity:1;fill-rule:evenodd;stroke:none"
         id="path82"
         inkscape:connector-curvature="0" /></g><circle
       style="fill:#0a89ff;stroke-width:0.75"
       id="path2"
       cx="63.604637"
       cy="-1220.8202"
       r="6" /></g></svg>
